<svg xmlns="http://www.w3.org/2000/svg" viewBox="-100 -100 595 675" width="40" height="40">

      <g>

      <path id="pants-path0" d="M197.762,9.82333 L211,10 L225,10 L239,10 L252,10 L266,10 L279,10 L293,10 L306.737,9.82333 L310,29 L314,48 L317,67 L320.392,86.6611 L320.392,86.6611 L325,109 L329,132 L333,155 L337,177 L341,200 L345,223 L349,246 L353,268 L357,291 L361,314 L365,337 L369,359 L373,382 L377,404 L381,427 L384.886,449.628 L362,453 L340,457 L317,461 L294.945,464.897 L288,447 L282,430 L276,413 L270,396 L264,379 L258,362 L252,345 L246,327 L240,310 L234,293 L228,276 L222,258 L216,241 L210,224 L204,207 L197.781,189.899 L191,207 L185,224 L179,241 L173,258 L167,276 L161,293 L155,310 L149,327 L143,345 L137,362 L131,379 L125,396 L119,413 L113,430 L107,447 L100.617,464.897 L78,461 L56,457 L33,453 L10.6756,449.628 L15,427 L19,404 L23,382 L27,359 L31,337 L35,314 L39,291 L43,268 L47,246 L51,223 L55,200 L59,177 L63,155 L67,132 L71,109 L75.1732,86.6611 L79,67 L82,48 L85,29 L88.8286,9.82333 L102,10 L116,10 L130,10 L143,10 L170,10 L184,10 L197.762,9.82333" fill="#E8DFB0">
      </path>

        <path id="pants-path1" d="M269.633 38.578 L270 39 L270 40 L271 42 L272 45 L275 49 L280 55 L286 61 L295 68 L306 77 L320 87" stroke="#7BCD84" stroke-width="19.6535" stroke-linecap="round" stroke-linejoin="round" fill="none"></path>
<path id="pants-path2" d="M320.392 86.6611 L384.886 449.628 L294.945 464.897 L197.781 189.899 L100.617 464.897 L10.6756 449.628 L75.1732 86.6611" stroke="#7BCD84" stroke-width="19.6535" stroke-linecap="round" stroke-linejoin="round" fill="none"></path>
<path id="pants-path3" d="M320.392 86.6611 L306.737 9.82333 L197.762 9.82333" stroke="#7BCD84" stroke-width="19.6535" stroke-linecap="round" stroke-linejoin="round" fill="none"></path>
<path id="pants-path4" d="M75.1732 86.6611 L89 77 L101 68 L109 61 L116 55 L120 49 L123 45 L125 42 L126 40 L126 39 L126 39" stroke="#7BCD84" stroke-width="19.6535" stroke-linecap="round" stroke-linejoin="round" fill="none"></path>
<path id="pants-path5" d="M75.1732 86.6611 L88.8286 9.82333 L197.762 9.82333" stroke="#7BCD84" stroke-width="19.6535" stroke-linecap="round" stroke-linejoin="round" fill="none"></path>
<path id="pants-path6" d="M197.762 9.82333 L197.781 67.2343" stroke="#7BCD84" stroke-width="19.6535" stroke-linecap="round" stroke-linejoin="round" fill="none"></path>

      </g>
    </svg>
