<svg xmlns="http://www.w3.org/2000/svg" width="393.562" height="361.878" viewBox="0 0 104.13 95.747"><path d="M125.995 109.941c-7.707 0-15.098 3.062-20.484 8.576-5.61-5.61-13.048-8.448-20.485-8.448s-14.874 2.838-20.548 8.512c-5.675 5.674-8.512 13.111-8.512 20.549s5.674 17.711 8.512 20.548l10.21 10.21 10.21 10.21.128.129 10.21 10.21 10.21 10.21 10.275-10.274 10.275-10.274 9.21-9.21 11.338-11.339c2.837-2.837 8.512-13.111 8.512-20.549s-2.837-14.874-8.512-20.548a29.06 29.06 0 0 0-20.549-8.512" style="fill:#c01400;fill-opacity:1;stroke:#7bcd84;stroke-width:5.04026;stroke-linecap:round;stroke-linejoin:round;stroke-opacity:1" transform="translate(-53.446 -107.42)"/>
<path d="M 125.995 109.941
c -7.707 0-15.098 3.062-20.484 8.576-5.61-5.61-13.048-8.448-20.485-8.448
s -14.874 2.838-20.548 8.512
c -5.675 5.674-8.512 13.111-8.512 20.549
s 5.674 17.711 8.512 20.548
l 10.21 10.21 10.21 10.21.128.129 10.21 10.21 10.21 10.21 10.275-10.274 10.275-10.274 9.21-9.21 11.338-11.339
c 2.837-2.837 8.512-13.111 8.512-20.549
s -2.837-14.874-8.512-20.548
a 29.06 29.06 0 0 0-20.549-8.512" /></svg>
