<svg width="40" height="36.779" viewBox="0 0 96.034 88.301" xmlns="http://www.w3.org/2000/svg"><path d="M66.908 2.324c-7.108 0-13.924 2.824-18.891 7.91-5.174-5.174-12.034-7.792-18.892-7.792a26.717 26.717 0 00-18.95 7.85 26.714 26.714 0 00-7.85 18.952c0 6.86 5.232 16.333 7.85 18.95l9.415 9.416 9.417 9.416.118.12 9.416 9.415 9.416 9.416 9.476-9.475 9.476-9.475 8.494-8.494 10.456-10.457c2.617-2.617 7.85-12.092 7.85-18.951 0-6.86-2.616-13.718-7.85-18.95a26.8 26.8 0 00-18.951-7.85" fill="#c01400" stroke="#7bcd84" stroke-width="4.648" stroke-linecap="round" stroke-linejoin="round"/></svg>
